<?xml version="1.0" encoding="utf-8"?>
<!-- Generator: Adobe Illustrator 19.0.0, SVG Export Plug-In . SVG Version: 6.00 Build 0)  -->
<svg version="1.1" id="Layer_1" xmlns="http://www.w3.org/2000/svg" xmlns:xlink="http://www.w3.org/1999/xlink" x="0px" y="0px"
	 viewBox="0 0 500 500" style="enable-background:new 0 0 500 500;" xml:space="preserve">
<style type="text/css">
	.st0{fill:#0058A9;}
	.st1{fill:#ABE1FA;}
	.st2{fill:#FFFFFF;}
</style>
<g id="XMLID_1_">
	<path id="XMLID_5_" class="st0" d="M120.3,257.7c-0.5,0-0.9,0.1-1.2,0.3c-1,0.9,5.3,12.4,9.5,20.5c4.4-5.6,17.1-9.3,19-9.8
		c-4.4,0.4-20.4-8.1-22.2-9.2C124.1,258.8,121.8,257.8,120.3,257.7z M379.7,257.7c-1.5,0.1-3.7,1-5.2,1.9c-1.8,1-17.8,9.6-22.2,9.2
		c2,0.5,14.6,4.2,19,9.8c4.2-8.1,10.6-19.6,9.5-20.5C380.6,257.8,380.2,257.7,379.7,257.7z"/>
	<path id="XMLID_8_" class="st1" d="M141.5,92.1l-0.7,67.8c-0.9,33.3,13.2,68.6,13.2,68.6c25.4,67.3,89,102.2,95.1,105.4v0.6
		l0.6-0.3c0.1,0,0.6,0.3,0.6,0.3v-0.6c6.1-3.2,69.7-38.1,95.1-105.4c0,0,14.1-35.3,13.2-68.6l-0.7-67.8H250.3h-1.2H141.5z
		 M123.3,228.7c-0.9,0-1.4,0.1-1.4,0.1c-7.5,0-28.3,15.4-28.3,15.4c-17.2,8.2-19.5,1.2-24.8,11.8c-4.5,11.4,8.1,17.5,8.1,17.5
		s8.7-8.2,17.9-12.5c3,1,8.6,7.1,9.6,8.7l-14,6.6c23.7,65,67.6,96.2,109.5,107.7v0c10.1,3.1,12.9,3.4,29.1,7.4
		c1,0.3,1.7,0.6,0.4,3.4c-2.9,5.3,1.7,7.4,4.7,9.2c4.2,2.3,9.2,3.7,14.4,3.8v0l0.1,0l0.1,0v0h2.8v0l0.1,0l0.1,0v0
		c5.2-0.1,10.2-1.5,14.4-3.8c3-1.8,7.6-3.9,4.7-9.2c-1.4-2.8-0.6-3.1,0.4-3.4c16.2-4,19-4.3,29.1-7.4v0
		c41.9-11.5,85.8-42.6,109.5-107.7l-14-6.6c1-1.6,6.5-7.7,9.6-8.7c9.2,4.4,17.9,12.5,17.9,12.5s12.7-6.2,8.1-17.5
		c-5.3-10.6-7.6-3.6-24.8-11.8c0,0-20.8-15.4-28.3-15.4c0,0-7.6-1.9-21,11.5c-5.9,5.9-13.6,14.7-11.8,23.6c2.6,12.1,28-3.6,28-3.6
		c12.1-7.2,5.8,2.4,5.8,2.4c-24.6,54.4-58.6,79.8-93.5,87.7c-11.1,2.7-15.4,3.5-24.5,6.4c-4.4,1.5-4,4.6-1.4,7.2
		c1.4,1.6,3.7,2.7,1.9,5c-2.7,2.7-7.6,3.9-11.2,3.9c-3.8,0-9.5-1.2-12.2-3.9c-1.8-2.3,0.6-3.4,1.9-5c2.6-2.6,3-5.7-1.4-7.2
		c-9.1-2.9-13.5-3.6-24.5-6.4c-34.9-7.9-68.9-33.3-93.5-87.7c0,0-6.2-9.6,5.8-2.4c0,0,25.4,15.7,28,3.6c1.8-8.9-6-17.8-11.8-23.6
		C132.8,230.2,126,228.8,123.3,228.7L123.3,228.7z"/>
	<path id="XMLID_11_" class="st0" d="M140.3,93.9v81.8c2.9,36.5,16.6,64.4,16.6,64.4l92.3-92.4c0,0,70.2,70,92.2,92.6
		c19.2-47.7,17.2-78.3,17.2-78.3L358,93.9H140.3L140.3,93.9z M250.3,209.2l-67.7,68.7c0,0,26.9,35.6,67.6,56.6
		c12.6-6.4,44.9-28.1,68.2-56.6C291.7,250,250.3,209.2,250.3,209.2z"/>
	<path id="XMLID_14_" d="M140.3,93.9h-0.5v81.9l0,0c2.9,36.6,16.7,64.6,16.7,64.6l0.3,0.7l92.9-92.9l-0.4-0.4l-0.4,0.4
		c0,0,1.1,1.1,3.1,3.1c13.7,13.7,69.9,69.8,89.2,89.6l0.6,0.6l0.3-0.8c16-39.7,17.3-67.6,17.3-75.9c0-1.7-0.1-2.6-0.1-2.6l-0.5,0
		l0.5,0l-0.8-68.7H140.3h0h-0.5v0.5H140.3v0.5h0h217.1l0.8,67.7l0,0c0,0,0,0,0,0.2c0,0.3,0,1.1,0,2.4c0,8.2-1.3,36-17.3,75.5
		l0.5,0.2l0.4-0.4c-22-22.7-92.2-92.6-92.2-92.6l-0.4-0.4l-92.7,92.8l0.4,0.4l0.5-0.2c0,0-0.1-0.1-0.2-0.3
		c-1.5-3.2-13.7-29.8-16.4-63.9l-0.5,0h0.5V93.9H140.3v0.5V93.9z M250.3,209.2l-0.4-0.4l-68,69.1l0.3,0.4c0,0,26.9,35.7,67.8,56.7
		l0.2,0.1l0.2-0.1c6.4-3.2,17.6-10.3,30.2-20.1c12.6-9.8,26.5-22.4,38.2-36.6l0.3-0.4l-0.3-0.3c-26.8-27.9-68.2-68.7-68.2-68.7
		l-0.4-0.4l-0.4,0.4L250.3,209.2l-0.4,0.4c0,0,0.6,0.6,1.8,1.8c8.3,8.2,42.9,42.5,66.3,66.9l0.4-0.4l-0.4-0.3
		c-11.6,14.2-25.5,26.7-38,36.5c-12.5,9.8-23.7,16.8-30,20l0.2,0.5l0.2-0.5c-20.3-10.4-37.2-24.5-49-36
		c-5.9-5.8-10.5-10.8-13.7-14.5c-1.6-1.8-2.8-3.3-3.6-4.3c-0.4-0.5-0.7-0.9-0.9-1.2s-0.3-0.4-0.3-0.4l-0.4,0.3l0.4,0.4l67.7-68.7
		L250.3,209.2l-0.4,0.4L250.3,209.2z"/>
	<path id="XMLID_26_" d="M109.6,247.2c0,0,4.7-2.1,10.1-7.5l-0.2-0.2l-0.2,0.2c1.1,1.4,1.6,2.7,1.6,4c0,1.9-1.1,3.8-2.9,5.5
		c-2.7,2.5-6.7,4.7-10,6.2c-1.7,0.8-3.2,1.3-4.3,1.8c-0.5,0.2-1,0.4-1.3,0.5c-0.3,0.1-0.5,0.2-0.5,0.2l0.1,0.3l-0.1-0.3
		c0,0-3.7,1-7.5,3.1l0.3,0.5c1.9-1,3.7-1.8,5.1-2.3c0.7-0.3,1.3-0.4,1.7-0.6c0.4-0.1,0.6-0.2,0.6-0.2l0,0l0,0c0,0,4.8-1.5,9.6-4.1
		c2.4-1.3,4.8-2.8,6.7-4.6c1.8-1.8,3.1-3.7,3.1-5.9c0-1.4-0.5-2.9-1.8-4.3l-0.2-0.2l-0.2,0.2c-2.7,2.7-5.2,4.5-7,5.7
		c-0.9,0.6-1.6,1-2.2,1.3c-0.3,0.1-0.5,0.2-0.6,0.3c-0.1,0.1-0.2,0.1-0.2,0.1L109.6,247.2L109.6,247.2z M118.4,229.1
		c0,0-2.7,0.9-5.4,3c-2.7,2.1-5.5,5.4-5.5,10.3c0,1.3,0.2,2.8,0.7,4.4l0,0l0,0c1.4,2.8,3.5,4,5.6,4c1.9,0,3.8-0.9,5.2-2.3
		c1.4-1.4,2.4-3.3,2.4-5.2c0-1.4-0.5-2.8-1.7-4l-0.4,0.4c1.1,1.1,1.5,2.3,1.5,3.5c0,1.7-0.9,3.4-2.2,4.8c-1.3,1.3-3.1,2.2-4.8,2.2
		c-1.9,0-3.7-1-5.1-3.7l-0.3,0.1l0.3-0.1c-0.5-1.5-0.7-2.9-0.7-4.2c0-4.6,2.6-7.8,5.2-9.8c1.3-1,2.6-1.8,3.6-2.2
		c0.5-0.2,0.9-0.4,1.2-0.5c0.1-0.1,0.3-0.1,0.3-0.1l0.1,0L118.4,229.1L118.4,229.1z M104.2,270.1c0,0,3.7-1.3,6.6-4.2
		c1.2-1.2,2.3-3.3,3.7-5.1c0.7-0.9,1.4-1.7,2.2-2.3c0.8-0.6,1.7-1,2.7-1c0.7,0,1.4,0.2,2.3,0.6l0.3-0.5c-0.9-0.5-1.7-0.7-2.5-0.7
		c-1.1,0-2.1,0.4-3,1.1c-1.3,1-2.4,2.4-3.4,3.9c-1,1.4-1.8,2.8-2.6,3.6c-1.4,1.4-3,2.4-4.3,3.1c-0.6,0.3-1.2,0.6-1.5,0.7
		c-0.2,0.1-0.3,0.1-0.4,0.2c-0.1,0-0.2,0.1-0.2,0.1L104.2,270.1L104.2,270.1z M150.3,267.9c0,0-5.6,0.9-11.7,3.7
		c-6.2,2.8-10.1,6.7-10.1,6.7l0.4,0.4c0,0,0.1-0.1,0.2-0.2c0.8-0.8,4.4-4,9.7-6.4c3-1.4,5.9-2.3,8.1-2.9c1.1-0.3,1.9-0.5,2.6-0.6
		c0.3-0.1,0.5-0.1,0.7-0.1c0.2,0,0.2,0,0.2,0L150.3,267.9L150.3,267.9z M391,246.7c0,0-0.1,0-0.2-0.1c-0.9-0.5-5-2.6-9.7-7.3
		l-0.2-0.2l-0.2,0.2c-1.2,1.5-1.8,2.9-1.8,4.3c0,2.2,1.3,4.1,3.1,5.9c2.7,2.6,6.8,4.8,10.2,6.3c3.4,1.5,6.1,2.4,6.1,2.4l0,0l0,0
		c0,0,0.1,0,0.2,0c0.9,0.2,4.5,1.2,7.7,3.4l0.3-0.5c-3.8-2.7-8.1-3.5-8.1-3.6l-0.1,0.3l0.1-0.3c0,0-0.3-0.1-0.8-0.3
		c-1.8-0.6-6.4-2.4-10.5-4.8c-2.1-1.2-4-2.6-5.4-4.1c-1.4-1.5-2.3-3.2-2.3-4.8c0-1.3,0.5-2.6,1.6-4l-0.2-0.2l-0.2,0.2
		c5.4,5.4,10.1,7.5,10.1,7.5L391,246.7L391,246.7z M381.9,229.8l0.1,0c0.6,0.2,3.1,1.2,5.5,3.2c2.4,2,4.7,5,4.7,9.3
		c0,1.3-0.2,2.7-0.7,4.2l0.3,0.1l-0.3-0.1c-1.3,2.7-3.2,3.7-5.1,3.7c-1.7,0-3.5-0.9-4.8-2.2c-1.3-1.3-2.2-3.1-2.2-4.8
		c0-1.2,0.4-2.5,1.5-3.5l-0.4-0.4c-1.2,1.2-1.7,2.6-1.7,4c0,1.9,1,3.8,2.4,5.2c1.4,1.4,3.3,2.3,5.2,2.3c2.1,0,4.2-1.2,5.6-4l0,0l0,0
		c0.5-1.6,0.7-3.1,0.7-4.4c0-4.8-2.7-8.1-5.4-10.1c-2.7-2.1-5.3-2.9-5.3-2.9L381.9,229.8L381.9,229.8z M396.6,269.8
		c0,0-0.1,0-0.2-0.1c-0.8-0.2-4.1-1.5-6.6-4.3c-1-1.1-2.1-3.3-3.5-5.2c-0.7-0.9-1.5-1.8-2.4-2.5c-0.9-0.6-1.9-1.1-3-1.1
		c-0.8,0-1.6,0.2-2.5,0.7l0.3,0.5c0.8-0.4,1.6-0.6,2.3-0.6c1,0,1.9,0.4,2.7,1c1.2,0.9,2.3,2.3,3.2,3.8c0.9,1.4,1.7,2.9,2.5,3.8
		c3,3.4,7,4.5,7,4.5L396.6,269.8L396.6,269.8z M350.3,268.7c0,0,0.1,0,0.2,0c1,0.2,5.6,1,10.9,3.5c3,1.4,5.5,3,7.2,4.4
		c0.9,0.7,1.5,1.2,2,1.6c0.2,0.2,0.4,0.4,0.5,0.5c0.1,0.1,0.2,0.2,0.2,0.2l0.4-0.4c0,0-3.9-3.9-10.1-6.7c-6.2-2.8-11.2-3.6-11.3-3.6
		L350.3,268.7L350.3,268.7z M237.4,367.2l-7.7,25.4l0.6,0.2l7.7-25.4L237.4,367.2z M261.9,366.7l7.9,26.5l0.6-0.2l-7.9-26.5
		L261.9,366.7z M431.2,255.9l0.3-0.1c-1.3-2.7-2.5-4.3-3.8-5.3c-1-0.8-2-1.2-3.1-1.4c-3.5-0.9-8.4-0.6-18-5.2l-0.1,0.3l0.2-0.2
		c0,0-5.2-3.9-11.4-7.7c-3.1-1.9-6.4-3.9-9.4-5.3c-3-1.5-5.8-2.4-7.7-2.4v0.3l0.1-0.3c0,0-0.4-0.1-1.1-0.1c-2.6,0-9.6,1.2-20.1,11.7
		c-5.3,5.3-12.2,13-12.2,21.2c0,0.9,0.1,1.8,0.3,2.7l0,0c0.4,1.7,1.2,3,2.4,3.7c1.2,0.8,2.7,1.1,4.3,1.1c4.3,0,9.7-2.1,14.1-4.1
		c4.4-2.1,7.7-4.1,7.7-4.1l-0.2-0.2l0.1,0.2c3.3-2,5.2-2.7,6.1-2.7c0.4,0,0.6,0.1,0.7,0.2c0.1,0.1,0.2,0.3,0.2,0.6
		c0,0.6-0.4,1.6-0.8,2.4c-0.2,0.4-0.4,0.7-0.5,1c-0.1,0.3-0.2,0.4-0.2,0.4l0,0l0,0c-24.6,54.4-58.5,79.7-93.3,87.5l0,0l0,0
		c-11.1,2.7-15.4,3.5-24.5,6.4l0,0l0,0c-1.2,0.4-2.1,0.9-2.7,1.6c-0.6,0.6-0.9,1.4-0.9,2.2c0,1.3,0.8,2.7,2,3.9l0.2-0.2l-0.2,0.2
		c0.5,0.6,1.2,1.2,1.7,1.7c0.5,0.5,0.8,1,0.8,1.6c0,0.4-0.1,0.8-0.6,1.4l0.2,0.2l-0.2-0.2c-2.6,2.6-7.4,3.8-11,3.8
		c-1.9,0-4.2-0.3-6.4-0.9c-2.2-0.6-4.3-1.6-5.6-2.9l-0.2,0.2l0.2-0.2c-0.4-0.5-0.6-1-0.6-1.4c0-0.5,0.3-1,0.8-1.6
		c0.5-0.5,1.1-1.1,1.7-1.7l-0.2-0.2l0.2,0.2c1.2-1.2,2-2.6,2-3.9c0-0.8-0.3-1.5-0.9-2.2c-0.6-0.6-1.5-1.2-2.7-1.6l0,0l0,0
		c-9.1-2.9-13.5-3.6-24.5-6.4l0,0l0,0c-34.8-7.8-68.7-33.1-93.3-87.5l0,0l0,0c0,0-0.1-0.1-0.2-0.4c-0.2-0.4-0.6-1-0.8-1.6
		c-0.3-0.6-0.5-1.3-0.5-1.8c0-0.3,0.1-0.5,0.2-0.6c0.1-0.1,0.3-0.2,0.7-0.2c0.9,0,2.9,0.7,6.1,2.7l0.1-0.2l-0.2,0.2
		c0,0,3.3,2.1,7.7,4.1c4.4,2.1,9.8,4.1,14.1,4.1c1.6,0,3.1-0.3,4.3-1.1c1.2-0.8,2-2,2.4-3.7l0,0l0,0c0.2-0.9,0.3-1.8,0.3-2.7
		c0-8.1-6.9-15.9-12.2-21.2c-10.5-10.5-17.5-11.7-20.1-11.7c-0.7,0-1.1,0.1-1.1,0.1l0.1,0.3v-0.3c-2,0-4.7,1-7.7,2.4
		c-9.1,4.4-20.8,13-20.8,13l0.2,0.2l-0.1-0.3c-8.6,4.1-13.4,4.3-16.8,5c-1.7,0.3-3.1,0.7-4.4,1.7c-1.3,1-2.4,2.6-3.8,5.3l0,0l0,0
		c-0.7,1.8-1,3.4-1,4.9c0,4.3,2.3,7.5,4.6,9.7c2.3,2.2,4.6,3.3,4.6,3.3l0.2,0.1l0.1-0.1c0,0,0.1-0.1,0.4-0.4
		c1.8-1.6,9.5-8.3,17.5-12.1l-0.1-0.3l-0.1,0.3c1.4,0.5,3.6,2.2,5.4,4.1c0.9,0.9,1.8,1.9,2.5,2.7c0.7,0.8,1.2,1.5,1.5,1.9l0.2-0.1
		l-0.1-0.3L90,276.1l0.1,0.2c23.7,65.1,67.7,96.4,109.7,107.9l0.1-0.3h-0.3v0v0.2l0.2,0.1c10.1,3.1,12.9,3.4,29.1,7.4l0.1-0.3
		l-0.1,0.3c0.3,0.1,0.5,0.2,0.7,0.3c0.1,0.1,0.2,0.2,0.2,0.5c0,0.4-0.2,1.1-0.7,2.2l0.3,0.1l-0.3-0.1c-0.7,1.2-1,2.3-1,3.2
		c0,1.7,0.9,2.9,2,3.9c1.1,1,2.6,1.8,3.7,2.5l0,0l0,0c4.2,2.3,9.3,3.7,14.5,3.8l0-0.3h-0.3v0v0.3l0.4,0l0.1,0l0.3,0v-0.3h-0.3l0,0.3
		c0.1,0,0.8,0,1.4,0c0.6,0,1.2,0,1.4,0l0-0.3h-0.3v0v0.3l0.4,0l0.1,0l0.3,0v-0.3h-0.3l0,0.3c5.3-0.1,10.3-1.5,14.5-3.8l0,0l0,0
		c1.1-0.7,2.6-1.5,3.7-2.5c1.1-1,2-2.2,2-3.9c0-1-0.3-2-1-3.2l-0.3,0.1l0.3-0.1c-0.5-1.1-0.7-1.8-0.7-2.2c0-0.3,0.1-0.4,0.2-0.5
		c0.1-0.1,0.4-0.2,0.7-0.3l-0.1-0.3l0.1,0.3c16.2-4,19-4.3,29.1-7.4l0.2-0.1v-0.2h-0.3l0.1,0.3c42-11.5,86-42.7,109.7-107.9l0.1-0.2
		l-14.3-6.7l-0.1,0.3l0.2,0.1c0.2-0.4,0.8-1.1,1.5-1.9c1.1-1.2,2.5-2.7,4-4c1.5-1.3,2.9-2.4,4-2.7l-0.1-0.3l-0.1,0.3
		c4.6,2.2,9,5.3,12.3,7.9c1.7,1.3,3,2.4,4,3.3c0.5,0.4,0.9,0.8,1.1,1c0.3,0.2,0.4,0.4,0.4,0.4l0.1,0.1l0.2-0.1c0,0,2.3-1.1,4.6-3.3
		c2.3-2.2,4.6-5.4,4.6-9.7c0-1.5-0.3-3.2-1-4.9l-0.1-0.2h-0.2V255.9l0.3-0.1L431.2,255.9v0.3h0L431.2,255.9L431,256
		c0.7,1.7,1,3.3,1,4.7c0,4-2.2,7.1-4.5,9.2c-1.1,1.1-2.2,1.9-3.1,2.4c-0.4,0.3-0.8,0.5-1,0.6c-0.1,0.1-0.2,0.1-0.3,0.2l-0.1,0
		l0.1,0.3l0.2-0.2c0,0-8.8-8.2-18-12.6l-0.1,0l-0.1,0c-1.6,0.5-3.8,2.3-5.7,4.2c-1,0.9-1.8,1.9-2.5,2.7c-0.7,0.8-1.2,1.5-1.5,2
		l-0.2,0.3l14.3,6.7l0.1-0.3l-0.3-0.1c-23.6,65-67.5,96-109.3,107.5l-0.2,0.1v0.2h0.3l-0.1-0.3c-10,3.1-12.9,3.4-29.1,7.4l0,0l0,0
		c-0.3,0.1-0.6,0.2-0.9,0.4c-0.3,0.2-0.4,0.6-0.4,1c0,0.6,0.2,1.3,0.8,2.4l0,0l0,0c0.6,1.2,0.9,2.1,0.9,3c0,1.4-0.8,2.5-1.8,3.5
		c-1.1,0.9-2.5,1.7-3.6,2.4l0.2,0.2l-0.1-0.3c-4.2,2.2-9.1,3.6-14.3,3.7l-0.3,0v0.3h0.3l0-0.3l-0.1,0l0,0l-0.1,0l0,0.3h0.3v0v-0.3
		l-0.3,0c-0.2,0-0.8,0-1.4,0c-0.6,0-1.2,0-1.4,0l-0.3,0v0.3h0.3l0-0.3l-0.1,0l0,0l-0.1,0l0,0.3h0.3v0v-0.3l-0.3,0
		c-5.2-0.1-10.1-1.5-14.3-3.7l-0.1,0.3l0.2-0.2c-1.2-0.7-2.5-1.5-3.6-2.4c-1.1-0.9-1.8-2-1.8-3.5c0-0.8,0.3-1.8,0.9-3l0,0l0,0
		c0.5-1.1,0.8-1.8,0.8-2.4c0-0.4-0.2-0.8-0.4-1c-0.3-0.2-0.6-0.3-0.9-0.4l0,0l0,0c-16.2-4-19-4.3-29.1-7.4l-0.1,0.3h0.3v0v-0.2
		l-0.2-0.1c-41.8-11.4-85.7-42.5-109.3-107.5l-0.3,0.1l0.1,0.3l14.3-6.7l-0.2-0.3c-0.3-0.4-0.8-1.1-1.5-2c-1.1-1.2-2.5-2.8-4-4.1
		c-1.5-1.3-3-2.4-4.2-2.8l-0.1,0l-0.1,0c-9.2,4.4-18,12.6-18,12.6l0.2,0.2l0.1-0.3l-0.1,0c-0.5-0.2-2.7-1.5-4.8-3.6
		c-2.1-2.1-4-5.1-4-8.8c0-1.4,0.3-3,1-4.7l-0.3-0.1l0.3,0.1c1.3-2.6,2.4-4.1,3.6-5.1c0.9-0.7,1.8-1.1,2.9-1.3
		c3.4-0.8,8.4-0.6,18.1-5.3l0,0l0,0c0,0,0.3-0.2,0.9-0.7c2-1.5,7.2-5.2,12.8-8.5c2.8-1.7,5.6-3.2,8.1-4.4c2.5-1.1,4.8-1.9,6.4-1.9h0
		l0,0l0,0c0.1,0,0.4-0.1,1-0.1c2.4,0,9.3,1.1,19.7,11.5c5.3,5.2,12,13,12,20.8c0,0.9-0.1,1.7-0.3,2.6l0.3,0.1l-0.3-0.1
		c-0.4,1.6-1.1,2.7-2.2,3.4c-1,0.7-2.4,1-4,1c-4.1,0-9.5-2-13.8-4.1c-2.2-1-4.1-2-5.5-2.8c-0.7-0.4-1.2-0.7-1.6-0.9
		c-0.4-0.2-0.6-0.3-0.6-0.3l0,0l0,0c-3.3-2-5.3-2.7-6.4-2.7c-0.5,0-0.8,0.1-1.1,0.4c-0.2,0.3-0.3,0.6-0.3,1c0,0.8,0.4,1.8,0.8,2.7
		c0.4,0.8,0.8,1.5,0.8,1.5l0.2-0.2l-0.3,0.1c24.6,54.5,58.7,80,93.7,87.8l0.1-0.3l-0.1,0.3c11.1,2.7,15.4,3.5,24.5,6.4l0.1-0.3
		l-0.1,0.3c1.1,0.4,1.9,0.9,2.4,1.4c0.5,0.5,0.7,1.1,0.7,1.8c0,1.1-0.7,2.4-1.8,3.5l0,0l0,0c-0.5,0.6-1.1,1.1-1.7,1.7
		c-0.5,0.6-1,1.2-1,2c0,0.5,0.2,1.1,0.7,1.7l0,0l0,0c1.4,1.4,3.6,2.4,5.9,3c2.3,0.6,4.7,0.9,6.6,0.9c3.7,0,8.6-1.2,11.4-4l0,0l0,0
		c0.5-0.6,0.7-1.2,0.7-1.7c0-0.8-0.5-1.4-1-2c-0.5-0.6-1.2-1.1-1.7-1.7l0,0l0,0c-1.2-1.2-1.8-2.4-1.8-3.5c0-0.6,0.2-1.2,0.7-1.8
		c0.5-0.5,1.3-1,2.4-1.4l-0.1-0.3l0.1,0.3c9.1-2.9,13.4-3.6,24.5-6.4l-0.1-0.3l0.1,0.3c35-7.9,69.1-33.4,93.7-87.8l-0.3-0.1l0.2,0.2
		c0,0,0.4-0.6,0.8-1.5c0.4-0.8,0.8-1.8,0.8-2.7c0-0.4-0.1-0.7-0.3-1c-0.2-0.3-0.6-0.4-1.1-0.4c-1.2,0-3.1,0.8-6.4,2.7l0,0
		c0,0-0.2,0.1-0.6,0.3c-1.3,0.8-4.7,2.7-8.7,4.5c-4,1.8-8.6,3.3-12.1,3.3c-1.6,0-2.9-0.3-4-1c-1-0.7-1.8-1.7-2.2-3.4l-0.3,0.1
		l0.3-0.1c-0.2-0.9-0.3-1.7-0.3-2.6c0-7.8,6.7-15.5,12-20.8c10.4-10.4,17.3-11.5,19.7-11.5c0.3,0,0.6,0,0.8,0c0.1,0,0.1,0,0.2,0l0,0
		l0,0l0,0h0c1.8,0,4.5,0.9,7.5,2.4c4.5,2.2,9.7,5.4,13.7,8.1c2,1.4,3.8,2.6,5,3.5c1.2,0.9,2,1.4,2,1.4l0,0l0,0
		c8.6,4.1,13.6,4.4,16.9,5c1.7,0.3,2.9,0.7,4.1,1.6c1.2,0.9,2.3,2.4,3.6,5.1l0.1,0.2h0.2V255.9z"/>
	<path id="XMLID_29_" d="M249.7,92H140l-0.7,68.7l0.6,0l-0.6,0c0,1,0,2.1,0,3.1c0,32.6,13.3,65.9,13.3,66l0.6-0.2l-0.6,0.2
		c13.4,35.6,37.7,62.2,58.5,80c20.9,17.8,38.4,26.7,38.4,26.7l0.6-1.1c0,0-0.1,0-0.2-0.1c-2-1.1-19.6-10.4-39.9-28.1
		c-20.3-17.7-43.3-43.6-56.2-77.8l0,0l0,0c0,0-0.1-0.1-0.1-0.4c-1.4-3.7-13.1-34.8-13.1-65.1c0-1,0-2.1,0-3.1l0,0l0.7-67.4h108.5V92
		L249.7,92z M249.7,93.2h108.5l0.7,67.4l0,0c0,1,0,2.1,0,3.1c0,16.1-3.3,32.5-6.6,44.9c-1.7,6.2-3.3,11.3-4.5,14.9
		c-0.6,1.8-1.1,3.2-1.5,4.2c-0.2,0.5-0.3,0.9-0.4,1.1c-0.1,0.2-0.1,0.4-0.1,0.4l0,0l0,0c-13.3,35.3-37.4,61.8-58.2,79.5
		c-10.4,8.8-19.9,15.5-26.9,19.9c-3.5,2.2-6.3,3.9-8.3,5c-1,0.6-1.7,1-2.3,1.2c-0.3,0.1-0.5,0.2-0.6,0.3c-0.1,0.1-0.2,0.1-0.2,0.1
		l0.6,1.1c0,0,17.5-8.9,38.4-26.7c20.9-17.8,45.1-44.4,58.5-80l-0.6-0.2l0.6,0.2c0,0,13.3-33.3,13.3-66c0-1,0-2.1,0-3.1l-0.6,0
		l0.6,0L359.5,92H249.7V93.2L249.7,93.2z"/>
	<path id="XMLID_42_" class="st2" d="M308.5,106.9c-0.4,0-0.8,0.1-0.9,0.2c-0.3,0.2,0,2.8-0.2,3c-0.2,0.2-2.9-0.1-3.1,0.2
		c-0.2,0.3-0.3,3.2,0.1,3.5c0.3,0.3,2.8-0.2,3.1,0.1c0.1,0.1,0.2,2.9,0,3.2c-3.8,2.1-4.3,7-1,9.5c-0.7,0.7-1.5,1.9-2,1.8
		c-7.1-1.3-13.4-5.2-20.8-4.6c-4.1,0.3-7.5,3.2-8.2,7.4c-1.3,7.5,4.1,13.2,6.7,19.6c0.8,2,1.6,4.7,1.4,7c0,0,25.3,0,25.7,0h0
		c0.3,0,25.7,0,25.7,0c-0.1-2.3,0.6-5,1.4-7c2.6-6.3,8-12.1,6.7-19.6c-0.7-4.2-4.1-7-8.2-7.4c-7.3-0.6-13.7,3.3-20.8,4.6
		c-0.6,0.1-1.3-1.1-2-1.8c3.3-2.5,2.8-7.4-1-9.5c-0.3-0.3-0.2-3.1,0-3.2c0.3-0.3,2.8,0.2,3.1-0.1c0.3-0.3,0.3-3.2,0-3.5
		c-0.2-0.3-3,0-3.1-0.2c-0.2-0.2,0.1-2.8-0.2-3c-0.3-0.2-1.6-0.2-1.7-0.2C309.2,106.9,308.9,106.9,308.5,106.9z M186.5,107.6
		c0,0-1.4,0-1.6,0.2c-0.3,0.2,0,2.8-0.2,3c-0.2,0.2-2.9-0.1-3.1,0.2c-0.2,0.3-0.3,3.2,0.1,3.5c0.3,0.3,2.8-0.2,3.1,0.1
		c0.2,0.1,0.2,2.9,0,3.2c-3.8,2.1-4.3,7-1,9.5c-0.7,0.7-1.5,1.9-2,1.8c-7.1-1.3-13.5-5.2-20.8-4.6c-4.1,0.3-7.5,3.2-8.2,7.4
		c-1.3,7.5,4.1,13.2,6.7,19.6c0.8,2,1.6,4.7,1.4,7c0,0,25.3,0,25.7,0h0h0c0.3,0,25.7,0,25.7,0c-0.1-2.3,0.6-5,1.4-7
		c2.6-6.3,8-12.1,6.7-19.6c-0.7-4.2-4.1-7-8.2-7.4c-7.3-0.6-13.7,3.3-20.8,4.6c-0.6,0.1-1.3-1.1-2-1.8c3.3-2.5,2.9-7.4-1-9.5
		c-0.3-0.3-0.2-3.1,0-3.2c0.3-0.3,2.7,0.2,3.1-0.1c0.3-0.3,0.3-3.2,0.1-3.5c-0.2-0.3-3,0-3.1-0.2c-0.2-0.2,0.1-2.8-0.2-3
		C187.9,107.6,186.5,107.6,186.5,107.6L186.5,107.6z M286.4,127.6c1.8,0,3.6,0.4,5.6,1c3.4,1,6.2,2.4,10.5,3.8
		c1,0.3-0.8,0.3,1.8,5.5c1.2,2.4,2,7.1,1.5,9.8c-0.7,3.8-2.8,6.1-4.5,6.2c-1.1,0-2-0.4-2.9-1.2c-1.1-1-2.1-2.6-1.8-3.6
		c0.2-0.3,3.3,0.1,3.6-0.2c0.2-0.3-0.4-2.7-0.7-3c-0.3-0.3-3.1,0.1-3.5-0.2c-0.4-0.3-0.7-3.3-1.1-3.5c0,0-2.9-0.4-3.2,0
		c-0.2,0.4,1,2.9,0.8,3.3c-0.2,0.4-4.1-0.4-4.2,0.1c-0.1,0.4,0.2,2.6,0.6,2.9c0.4,0.3,4,0.3,4,0.3c0.8,0.6,1,1.7,1,2.9
		c0,1.5-1.2,2.3-3.1,1.8c-3.5-1-7.5-8.8-10.1-14c-1.9-3.9-2.7-9.4,2.3-11.3C284.3,127.8,285.3,127.6,286.4,127.6z M332,127.6
		c1.1,0,2.2,0.2,3.3,0.7c5,1.9,4.1,7.4,2.2,11.3c-2.6,5.3-6.6,13.1-10.1,14c-1.9,0.5-3.1-0.3-3.1-1.8c0-1.2,0.2-2.4,1-2.9
		c0,0,3.6,0,4-0.3c0.4-0.3,0.7-2.5,0.6-2.9c-0.1-0.4-4,0.4-4.2-0.1c-0.2-0.4,1-2.9,0.8-3.3c-0.2-0.4-3.2,0-3.2,0
		c-0.4,0.2-0.7,3.2-1.1,3.5c-0.4,0.3-3.2-0.1-3.5,0.2c-0.4,0.3-1,2.7-0.7,3c0.2,0.3,3.3-0.2,3.5,0.2c0.3,1-0.6,2.6-1.8,3.6
		c-0.8,0.7-1.7,1.2-2.9,1.2c-1.7,0-3.8-2.4-4.5-6.2c-0.5-2.6,0.3-7.4,1.5-9.8c2.6-5.2,0.8-5.2,1.8-5.5c4.3-1.4,7.1-2.8,10.5-3.8
		C328.4,128,330.2,127.6,332,127.6L332,127.6z M163.7,128.3c1.8,0,3.6,0.4,5.6,1c3.4,1,6.2,2.4,10.5,3.8c1,0.3-0.8,0.3,1.8,5.5
		c1.2,2.4,2,7.2,1.5,9.8c-0.7,3.8-2.7,6.1-4.5,6.1c-1.1,0-2-0.4-2.9-1.2c-1.1-1-2.1-2.6-1.8-3.6c0.3-0.3,3.3,0.1,3.6-0.2
		c0.2-0.3-0.4-2.7-0.7-3c-0.3-0.3-3.1,0.1-3.5-0.2c-0.4-0.3-0.7-3.3-1.1-3.5c0,0-2.9-0.4-3.2,0c-0.2,0.4,1,2.9,0.8,3.3
		c-0.2,0.4-4.1-0.4-4.2,0.1c-0.1,0.4,0.2,2.6,0.6,2.9c0.4,0.3,4,0.3,4,0.3c0.8,0.6,1,1.7,1,2.9c0,1.5-1.2,2.3-3.1,1.8
		c-3.5-1-7.5-8.8-10.1-14c-1.9-3.9-2.7-9.4,2.2-11.3C161.5,128.5,162.6,128.4,163.7,128.3z M209.3,128.3c1.1,0,2.2,0.2,3.3,0.7
		c5,1.9,4.1,7.4,2.2,11.3c-2.6,5.3-6.6,13.1-10.1,14c-1.9,0.5-3.1-0.3-3.1-1.8c0-1.2,0.2-2.4,1-2.9c0,0,3.6,0,4-0.3
		c0.4-0.3,0.7-2.5,0.6-2.9c-0.1-0.4-4,0.4-4.2-0.1c-0.2-0.4,1-2.9,0.8-3.3c-0.2-0.4-3.2,0-3.2,0c-0.4,0.2-0.7,3.2-1.1,3.5
		c-0.4,0.3-3.2-0.1-3.5,0.2c-0.3,0.3-0.9,2.7-0.7,3c0.2,0.3,3.3-0.2,3.6,0.2c0.3,1-0.6,2.6-1.8,3.6c-0.8,0.7-1.7,1.2-2.9,1.2
		c-1.7,0-3.8-2.4-4.5-6.1c-0.5-2.6,0.3-7.4,1.5-9.8c2.6-5.2,0.8-5.2,1.8-5.5c4.3-1.4,7.1-2.8,10.5-3.8
		C205.7,128.7,207.5,128.3,209.3,128.3z M283,161.2v4.4h26.3h26.3v-4.4h-26.3H283z M160.2,161.9v4.4h26.2h26.3v-4.4h-26.3H160.2z
		 M251.4,238.9c0,0-1.4,0-1.6,0.2c-0.3,0.2,0,2.8-0.2,3c-0.2,0.2-2.9-0.1-3.1,0.2c-0.2,0.3-0.3,3.2,0.1,3.5c0.3,0.3,2.8-0.2,3.1,0.1
		c0.1,0.1,0.2,2.9,0,3.2c-3.8,2.1-4.3,7-1,9.5c-0.7,0.7-1.5,1.9-2,1.8c-7.1-1.3-13.5-5.2-20.8-4.6c-4.1,0.3-7.5,3.2-8.2,7.4
		c-1.3,7.5,4.1,13.2,6.7,19.6c0.8,2,1.6,4.7,1.4,7h25.7h0h0H277c-0.1-2.3,0.6-5,1.4-7c2.6-6.3,8-12.1,6.7-19.6
		c-0.7-4.2-4.1-7-8.2-7.4c-7.3-0.6-13.7,3.3-20.8,4.6c-0.6,0.1-1.3-1.1-2-1.8c3.3-2.5,2.9-7.4-1-9.5c-0.3-0.3-0.2-3.1,0-3.2
		c0.3-0.3,2.7,0.2,3.1-0.1c0.3-0.3,0.3-3.2,0.1-3.5c-0.2-0.3-3,0-3.1-0.2c-0.2-0.2,0.1-2.8-0.2-3
		C252.8,238.9,251.4,238.9,251.4,238.9L251.4,238.9z M228.6,259.7c1.8,0,3.6,0.4,5.6,1c3.4,1,6.2,2.4,10.5,3.8
		c1,0.3-0.8,0.3,1.8,5.5c1.2,2.4,2,7.2,1.5,9.8c-0.7,3.8-2.7,6.1-4.5,6.1c-1.1,0-2-0.4-2.9-1.1c-1.1-1-2.1-2.7-1.8-3.6
		c0.3-0.3,3.3,0.2,3.6-0.2c0.2-0.3-0.4-2.7-0.7-3c-0.3-0.3-3.1,0.1-3.5-0.2c-0.4-0.3-0.7-3.3-1.1-3.5c0,0-2.9-0.4-3.2,0
		c-0.2,0.4,1,2.9,0.8,3.3c-0.2,0.4-4.1-0.4-4.2,0.1c-0.1,0.4,0.2,2.6,0.6,2.9c0.4,0.3,4,0.3,4,0.3c0.8,0.6,1,1.8,1,3
		c0,1.5-1.2,2.3-3.1,1.8c-3.5-1-7.5-8.8-10.1-14c-1.9-3.9-2.7-9.4,2.2-11.3C226.4,259.9,227.5,259.7,228.6,259.7L228.6,259.7z
		 M274.2,259.7c1.1,0,2.2,0.2,3.3,0.7c5,1.9,4.1,7.4,2.3,11.3c-2.6,5.3-6.6,13.1-10.1,14c-1.9,0.5-3.1-0.3-3.1-1.8
		c0-1.2,0.2-2.4,1-3c0,0,3.6,0,4-0.3c0.4-0.3,0.7-2.5,0.6-2.9c-0.1-0.4-4,0.4-4.2-0.1c-0.2-0.4,1-2.9,0.8-3.3c-0.2-0.4-3.2,0-3.2,0
		c-0.4,0.2-0.7,3.2-1.1,3.5c-0.4,0.3-3.2-0.1-3.5,0.2c-0.3,0.3-0.9,2.7-0.7,3c0.2,0.3,3.3-0.2,3.5,0.2c0.3,1-0.6,2.6-1.8,3.6
		c-0.8,0.7-1.7,1.1-2.9,1.1c-1.7,0-3.8-2.4-4.5-6.1c-0.5-2.6,0.4-7.4,1.5-9.8c2.6-5.2,0.8-5.2,1.8-5.5c4.3-1.4,7.1-2.8,10.5-3.8
		C270.6,260.1,272.4,259.6,274.2,259.7L274.2,259.7z M225.1,293.3v4.4h26.2h26.2v-4.4h-26.2H225.1z"/>
	<path id="XMLID_69_" d="M386.5,277.1l-0.2,0c-0.2,0.6-0.4,1-0.7,1.6c-0.3,0.6-0.5,1.2-0.8,1.8c0,0.2,0.2,0.3,0.4,0.2l0.2-0.3
		c0.2-0.4,0.4-0.6,0.7-0.6c0.6-0.1,1.9,0.5,3,1l2.9,1.3c0.2,0.1,0.3,0.2,0.3,0.2c-0.2,0.1-2.4,0.8-3.3,1.2l-2.3,0.8
		c-0.8,0.3-3.4,1.1-4.2,1.1c-0.1,0.4-0.3,0.7-0.4,1.1c-0.2,0.4-0.6,1.2-0.9,1.8c0,0.2,0.3,0.3,0.4,0.3l0.2-0.2
		c0.1-0.2,0.5-0.6,0.7-0.7c0.7-0.3,0.9-0.2,2,0.3l3.5,1.6c1.1,0.5,2.4,1.1,2.8,1.5c0.2,0.2,0.1,0.5,0,0.8l-0.1,0.4
		c0,0.2,0.3,0.3,0.4,0.2c0.2-0.6,0.4-1,0.7-1.6c0.3-0.6,0.6-1.2,0.8-1.7c0-0.2-0.2-0.3-0.4-0.2l-0.2,0.3c-0.2,0.4-0.4,0.6-0.7,0.6
		c-0.6,0.1-1.9-0.5-3-1l-2.9-1.3c-0.8-0.3-0.9-0.4-0.9-0.5c0.3-0.2,1.1-0.4,2.6-0.9l5.5-1.8c1.7-0.6,2.4-0.8,2.8-0.9
		c0.1-0.2,0.1-0.4,0-0.6c-0.3-0.1-2.2-0.9-2.6-1.1l-3.5-1.6c-1.2-0.5-2.4-1.1-2.8-1.5c-0.2-0.2-0.1-0.5,0-0.8l0.1-0.4
		C386.7,277.2,386.6,277.1,386.5,277.1z M119.9,287.1c-0.1,0-0.2,0.1-0.2,0.2l0.1,0.4c0.3,0.7,0.3,0.9-1.2,1.7l-5.3,2.8
		c-1.5,0.8-1.6,0.7-2.1,0l-0.2-0.3c-0.2-0.1-0.4,0.1-0.4,0.2c0.4,0.7,0.8,1.4,1.1,2c0.4,0.7,0.7,1.4,1,2.1c0.1,0.1,0.4,0,0.4-0.2
		l-0.1-0.4c-0.3-0.8-0.3-0.9,1.2-1.7l5.3-2.8c1.5-0.8,1.6-0.7,2.1,0l0.2,0.3c0.2,0.1,0.4-0.1,0.4-0.2c-0.4-0.7-0.7-1.3-1.1-2
		c-0.4-0.7-0.7-1.4-1-2.1C120.1,287.1,120,287.1,119.9,287.1z M380.4,289.7c-0.1,0.2-0.5,1.1-1.1,2l-1.6,2.8
		c-0.3,0.7-0.7,1.3-1.1,1.9c0,0.2,0.2,0.3,0.4,0.3l0.2-0.2c0.5-0.6,0.6-0.7,2.1,0.1l5.3,2.9c1.5,0.8,1.5,1,1.1,1.7l-0.2,0.6
		c0,0.2,0.3,0.3,0.4,0.2c0.3-0.7,0.8-1.6,1.2-2.3l0.9-1.7c1-1.7,1.7-3,2-3.6c-0.3-0.4-1.1-1.3-1.7-1.8c-0.2,0-0.4,0.2-0.3,0.4
		c0.9,1.1,1.1,1.7,0,3.6c-0.7,1.2-0.9,1.4-1.2,1.5c-0.4,0.1-0.9-0.2-1.6-0.6l-1.8-1c-0.4-0.2-0.4-0.2-0.2-0.6l0.4-0.7
		c0.7-1.3,0.9-1.5,1.5-1.3l0.6,0.2c0.2-0.1,0.3-0.3,0.2-0.5c-0.5-0.2-1-0.5-1.5-0.8c-0.5-0.3-1-0.6-1.4-0.8c-0.2,0-0.3,0.3-0.3,0.5
		l0.4,0.4c0.5,0.4,0.4,0.7-0.3,2l-0.4,0.7c-0.2,0.3-0.2,0.3-0.6,0.1l-2.4-1.3c-0.8-0.4-0.8-0.5-0.5-1.1l0.6-1
		c0.2-0.4,0.5-0.8,0.8-1.1c0.4-0.4,0.8-0.4,1.8-0.2c0.1-0.1,0.3-0.4,0.2-0.5C381.9,290.3,380.7,289.8,380.4,289.7L380.4,289.7z
		 M122.5,292.3c-0.1,0-0.2,0.1-0.2,0.2l0.1,0.2c0.1,0.2,0.2,0.7,0.2,1c-0.1,0.7-0.3,0.9-1.4,1.5l-3.3,2c-1.1,0.7-2.3,1.4-2.8,1.5
		c-0.3,0-0.5-0.2-0.7-0.5l-0.3-0.3c-0.2-0.1-0.4,0.1-0.4,0.3c0.3,0.5,0.6,0.9,1,1.5c0.3,0.6,0.7,1.1,1,1.7c0.1,0.1,0.4,0,0.4-0.2
		l-0.2-0.3c-0.2-0.4-0.2-0.7-0.1-1c0.3-0.5,1.5-1.3,2.6-1.9l2.7-1.6c0.7-0.4,0.9-0.5,0.9-0.5c-0.1,0.4-0.3,1.2-0.7,2.7l-1.6,5.7
		c-0.5,1.8-0.7,2.5-0.8,2.9c0.1,0.2,0.3,0.4,0.5,0.4c0.3-0.2,2-1.3,2.4-1.5l3.3-2c1.1-0.7,2.3-1.4,2.8-1.4c0.3,0,0.5,0.2,0.7,0.4
		l0.3,0.3c0.2,0.1,0.4-0.1,0.4-0.3c-0.4-0.5-0.6-0.9-1-1.5c-0.3-0.6-0.7-1.1-1-1.7c-0.1-0.1-0.4,0-0.4,0.2l0.2,0.4
		c0.2,0.4,0.2,0.7,0.1,0.9c-0.3,0.5-1.5,1.3-2.5,1.9l-2.7,1.6c-0.2,0.1-0.3,0.2-0.4,0.2c0-0.2,0.6-2.4,0.9-3.5l0.6-2.4
		c0.2-0.8,1-3.5,1.4-4.1c-0.2-0.3-0.5-0.7-0.7-1c-0.2-0.4-0.7-1.2-1-1.8C122.7,292.2,122.6,292.2,122.5,292.3z M376.3,297.8
		c-0.1,0-0.2-0.1-0.3,0c-0.2,0.4-0.6,0.9-1,1.5c-0.2,0.3-0.5,0.8-0.8,1.1c0.7,0.8,1.2,1.8,1.8,2.8l1.7,3c0.4,0.7,0.7,1.2,0.9,1.7
		c-0.4,0-1.4-0.1-1.6-0.2l-4.1-0.5c-1-0.1-1.9-0.2-2.7-0.7c-0.3,0.5-0.7,1-1,1.5c-0.3,0.5-0.6,0.9-0.9,1.3l0,0.1l-0.1,0
		c-0.3,0.4-0.6,0.8-1,1.3c-0.3,0.4-0.7,0.8-1.2,1.4c0,0.2,0.2,0.3,0.3,0.3l0.4-0.3c0.4-0.3,0.5-0.3,0.9,0.3c1.1,2.1,2.2,4.3,3.2,6.3
		c-0.4-0.1-1.4-0.3-2.2-0.6l-3-0.9c-1.7-0.5-2.1-0.6-2.2-0.7c-0.1-0.1-0.1-0.2,0.1-0.6l0.2-0.4c0-0.2-0.2-0.3-0.4-0.3
		c-0.5,0.7-0.9,1.2-1.4,1.8c-0.4,0.5-0.9,1.1-1.3,1.5c-0.1,0.2,0.2,0.3,0.3,0.3l0.3-0.3c0.5-0.4,0.8-0.4,1.9-0.1l7.1,2
		c0.7,0.2,1.5,0.5,2.1,0.7c0.1,0,0.2-0.1,0.3-0.2c0.1-0.1,0.1-0.2,0.1-0.3c-0.4-0.7-1.4-2.6-2.1-4l-1-2c-0.8-1.6-1.3-2.7-1.6-3.5
		c-0.2-0.5,0-0.9,0.2-1.2l0.2-0.4l0,0l0.4-0.4c0.4-0.5,0.9-0.5,1.5-0.1c0.8,0.6,1.9,1.4,2.8,2c1.3,1,2.2,1.6,2.9,2.3
		c0.8,0.6,0.9,0.9,0.5,1.6l-0.1,0.2c0,0.1,0.3,0.3,0.4,0.2c0.3-0.6,0.7-1.1,1-1.5c0.3-0.5,0.7-1,1-1.5c0-0.2-0.2-0.3-0.4-0.3
		l-0.4,0.4c-0.5,0.5-0.7,0.4-1.6-0.2c-1.1-0.7-2.3-1.5-3.1-2.1c-0.5-0.4-1.6-1.1-2.2-1.6l0,0c0.5,0.1,1.6,0.3,2.4,0.4l3.4,0.5
		c0.9,0.1,2.6,0.4,3.5,0.7c0.1-0.1,0.3-0.3,0.2-0.4c-0.5-0.7-1.5-2.4-2.1-3.5l-1.5-2.8c-0.3-0.6-0.6-1.1-1.1-2l0,0
		c0.2,0.2,0.7,0.5,1.2,0.8l4.2,2.8c0.9,0.6,1,0.7,0.7,1.3l-0.2,0.4c0,0.2,0.3,0.3,0.4,0.2c0.4-0.7,0.8-1.3,1.2-1.9
		c0.4-0.6,0.7-1.1,1.2-1.7c0.1-0.2-0.2-0.4-0.4-0.3l-0.3,0.4c-0.4,0.4-0.6,0.5-1.5-0.1c-2-1.2-4.1-2.5-6-3.8
		c-0.7-0.5-0.8-0.8-0.5-1.5l0.2-0.5C376.5,298,376.4,297.9,376.3,297.8L376.3,297.8z M132.5,307.7c-0.1-0.1-0.4,0.1-0.4,0.2l0.2,0.4
		c0.4,0.7,0.4,0.9-0.9,1.9l-4.8,3.6c-1.3,1-1.5,0.9-2,0.3l-0.4-0.4c-0.2-0.1-0.4,0.2-0.3,0.3c0.5,0.6,1,1.2,1.5,1.9l1.1,1.5
		c1.2,1.5,2,2.7,2.4,3.3c0.5-0.1,1.7-0.5,2.3-0.8c0.1-0.2-0.1-0.4-0.2-0.5c-1.8,0.4-2,0.2-3.2-1.3c-0.8-1.1-0.9-1.4-0.8-1.7
		c0.1-0.4,0.5-0.7,1.2-1.2l4.5-3.4c1.3-1,1.5-0.9,2.1-0.3l0.3,0.3c0.1,0.1,0.4-0.2,0.4-0.3c-0.5-0.6-1-1.2-1.4-1.8
		C133.5,309.1,133,308.4,132.5,307.7L132.5,307.7z M136.6,313.4c-0.1-0.1-0.4,0.1-0.4,0.2l0.2,0.4c0.3,0.6,0.3,0.9-0.3,1.9l-3.3,6.7
		c-0.3,0.7-0.8,1.4-1.1,2c0,0.1,0.1,0.2,0.1,0.3c0.1,0.1,0.2,0.2,0.2,0.2c0.8-0.3,2.8-0.9,4.4-1.3l2.2-0.5c1.7-0.4,2.9-0.7,3.8-0.9
		c0.5-0.1,0.9,0.2,1.2,0.4l0.3,0.3l0,0l0.3,0.5c0.4,0.5,0.3,1-0.2,1.5c-0.7,0.7-1.7,1.6-2.6,2.3c-1.3,1.1-2,1.8-2.8,2.4
		c-0.8,0.6-1,0.7-1.7,0.2l-0.2-0.2c-0.1,0-0.3,0.2-0.3,0.4c0.5,0.4,0.9,0.9,1.3,1.3c0.4,0.4,0.8,0.8,1.2,1.3
		c0.1,0.1,0.4-0.2,0.3-0.3l-0.3-0.5c-0.4-0.6-0.3-0.8,0.5-1.5c0.9-0.9,2-1.9,2.7-2.6c0.5-0.4,1.4-1.3,2-1.8l0,0
		c-0.2,0.5-0.6,1.5-0.8,2.2l-1.1,3.3c-0.3,0.8-0.9,2.5-1.3,3.3c0,0.1,0.2,0.3,0.3,0.3c0.8-0.3,2.6-0.9,3.8-1.3l3.1-0.9
		c0.7-0.2,1.2-0.4,2.2-0.7l0,0c-0.2,0.2-0.6,0.6-1.1,1.1l-3.6,3.6c-0.8,0.8-0.9,0.8-1.5,0.4l-0.4-0.3c-0.2-0.1-0.4,0.2-0.3,0.3
		c0.6,0.5,1.1,1,1.7,1.6c0.5,0.5,0.9,1,1.4,1.5c0.2,0.1,0.4-0.1,0.4-0.3l-0.3-0.4c-0.3-0.4-0.4-0.7,0.3-1.5c1.6-1.8,3.3-3.4,5-5.1
		c0.6-0.6,0.9-0.7,1.5-0.2l0.5,0.3c0.2,0.1,0.4-0.2,0.3-0.4c-0.4-0.3-0.8-0.7-1.3-1.2c-0.3-0.3-0.7-0.7-1-1.1c-1,0.5-2,0.8-3.2,1.2
		l-3.3,1c-0.8,0.3-1.3,0.4-1.8,0.5c0.1-0.4,0.4-1.3,0.5-1.6l1.3-4c0.3-0.9,0.6-1.8,1.2-2.5c-0.5-0.4-0.9-0.8-1.3-1.3
		c-0.4-0.5-0.8-0.8-1.1-1.2l-0.1,0l0-0.1c-0.3-0.4-0.7-0.8-1.1-1.3c-0.4-0.4-0.7-0.9-1.1-1.5c-0.1-0.1-0.4,0.1-0.4,0.3l0.2,0.5
		c0.2,0.5,0.2,0.6-0.5,0.8c-2.3,0.7-4.6,1.3-6.8,1.9c0.2-0.4,0.6-1.3,1-2l1.4-2.8c0.8-1.6,1-1.9,1.1-2c0.1-0.1,0.2,0,0.6,0.2
		l0.4,0.3c0.2,0,0.4-0.1,0.3-0.3c-0.6-0.7-1-1.1-1.5-1.7C137.5,314.5,137,313.9,136.6,313.4L136.6,313.4z M359.1,320.2
		c-0.5,0.6-1,1.1-1.5,1.7c-0.5,0.6-1.1,1.1-1.6,1.7c-0.1,0.2,0.2,0.4,0.3,0.3l0.4-0.3c0.6-0.5,0.7-0.6,2,0.6l4.4,4.1
		c1.2,1.1,1.2,1.3,0.7,1.9l-0.3,0.4c0,0.2,0.2,0.3,0.4,0.3c0.5-0.5,1-1.2,1.6-1.8l1.2-1.3c1.3-1.4,2.3-2.4,2.8-2.9
		c-0.2-0.4-0.8-1.5-1.2-2.1c-0.2,0-0.4,0.1-0.4,0.3c0.7,1.7,0.6,2-0.7,3.3c-0.9,1-1.2,1.1-1.5,1.1c-0.4,0-0.8-0.4-1.4-0.9l-4.1-3.8
		c-1.2-1.1-1.1-1.3-0.7-1.9l0.2-0.3C359.5,320.4,359.2,320.2,359.1,320.2L359.1,320.2z M351.4,328.2c-0.7,0.4-1.3,0.7-2,1.3
		c-1.8,1.6-1.9,3.5-0.8,4.7c1,1.1,2.5,1.1,3.9,0.7l0.8-0.2c1.4-0.3,2.2-0.1,2.8,0.6c0.7,0.7,0.6,1.8-0.3,2.6c-1.2,1.1-3.1,0.4-3.8,0
		c-0.2,0-0.4,0.2-0.3,0.4c0.7,0.7,1.5,1.4,2,1.5c0.4-0.1,1.4-0.3,2.5-1.3c1.8-1.6,2-3.6,0.8-5c-1.1-1.2-2.7-1.1-3.8-0.8L352,333
		c-1.2,0.3-2.1,0.1-2.5-0.4c-0.6-0.7-0.7-1.6,0.3-2.5c1.1-1,2.2-0.6,3-0.1c0.2,0,0.4-0.2,0.4-0.4C352.7,329,351.8,328.3,351.4,328.2
		L351.4,328.2z M346.6,332.5c-0.3,0.3-0.8,0.7-1.3,1c-0.4,0.3-0.9,0.7-1.5,1.1c-0.1,0.1,0.1,0.4,0.3,0.4l0.5-0.2
		c0.5-0.2,0.6-0.2,0.8,0.5c0.7,2.3,1.2,4.6,1.7,6.8c-0.4-0.2-1.3-0.7-2-1l-2.7-1.5c-1.6-0.9-1.9-1.1-2-1.2c-0.1-0.1,0-0.2,0.2-0.5
		l0.3-0.3c0.1-0.2-0.1-0.4-0.3-0.4c-0.7,0.6-1.1,1-1.7,1.4c-0.5,0.4-1.1,0.8-1.6,1.2c-0.1,0.2,0.1,0.4,0.2,0.4l0.4-0.2
		c0.6-0.3,0.9-0.2,1.9,0.3l6.5,3.5c0.7,0.3,1.4,0.8,1.9,1.2c0.1,0,0.2-0.1,0.3-0.1s0.2-0.2,0.2-0.2c-0.3-0.8-0.8-2.8-1.2-4.4
		l-0.5-2.2c-0.4-1.7-0.7-2.9-0.8-3.8c-0.1-0.6,0.2-0.9,0.4-1.2l0.3-0.3C346.9,332.7,346.7,332.5,346.6,332.5L346.6,332.5z
		 M155.6,333.8c-0.1,0-0.3,0.2-0.3,0.3l0.3,0.3c0.5,0.6,0.6,0.7-0.5,2l-4,4.5c-1.1,1.3-1.3,1.2-1.9,0.8l-0.3-0.2
		c-0.2,0-0.3,0.2-0.3,0.4c0.6,0.5,1.2,1,1.8,1.5c0.6,0.5,1.1,1,1.7,1.5c0.1,0,0.3-0.2,0.3-0.3l-0.3-0.3c-0.5-0.6-0.6-0.7,0.5-2
		l3.9-4.5c1.1-1.3,1.3-1.2,1.9-0.8l0.3,0.2c0.2,0,0.3-0.2,0.3-0.4c-0.6-0.5-1.2-1-1.8-1.5C156.7,334.9,156.1,334.4,155.6,333.8
		L155.6,333.8z M250.3,334.8l-1.1,0.4l-0.8,2l1.3,0.7l1.2-0.6L250.3,334.8L250.3,334.8z M159.8,337.7c-0.2-0.1-0.4,0.2-0.3,0.3
		l0.2,0.2c0.2,0.2,0.5,0.6,0.5,0.8c0.2,0.7,0,0.9-0.7,1.9l-2.3,3c-0.8,1-1.6,2.1-2.1,2.4c-0.3,0.1-0.5,0-0.8-0.2l-0.3-0.2
		c-0.2,0-0.3,0.2-0.3,0.4c0.5,0.3,0.9,0.6,1.5,1.1c0.5,0.4,1,0.8,1.5,1.2c0.2,0.1,0.4-0.2,0.3-0.4l-0.3-0.3
		c-0.3-0.3-0.5-0.6-0.5-0.8c0.1-0.6,0.9-1.8,1.7-2.7l1.9-2.5c0.5-0.7,0.6-0.8,0.7-0.8c0.1,0.4,0.2,1.2,0.3,2.8l0.6,5.9
		c0.2,1.8,0.3,2.5,0.3,3c0.2,0.1,0.4,0.2,0.6,0.2c0.2-0.3,1.4-1.9,1.7-2.3l2.3-3.1c0.8-1,1.6-2.1,2.1-2.4c0.3-0.1,0.5,0,0.8,0.2
		l0.4,0.2c0.2,0,0.3-0.2,0.3-0.4c-0.5-0.3-0.9-0.6-1.5-1.1c-0.5-0.4-1-0.8-1.5-1.2c-0.2-0.1-0.4,0.2-0.3,0.4l0.3,0.3
		c0.3,0.3,0.5,0.6,0.4,0.8c0,0.6-0.9,1.8-1.7,2.7l-1.9,2.5c-0.2,0.2-0.2,0.3-0.3,0.3c-0.1-0.2-0.3-2.5-0.5-3.5l-0.3-2.4
		c-0.1-0.9-0.4-3.6-0.2-4.3c-0.4-0.2-0.7-0.5-1-0.7C161.1,338.7,160.3,338.2,159.8,337.7L159.8,337.7z M336.8,340.2
		c-0.4,0.3-0.9,0.6-1.5,1c-0.3,0.2-0.8,0.5-1.2,0.7c0.3,1,0.4,2.1,0.5,3.3l0.4,3.5c0.1,0.8,0.2,1.3,0.2,1.9
		c-0.4-0.2-1.2-0.6-1.5-0.8l-3.6-2.1c-0.8-0.5-1.6-1-2.2-1.7c-0.5,0.4-1,0.7-1.5,1c-0.5,0.3-0.9,0.6-1.4,0.8
		c-0.1,0.1,0.1,0.4,0.2,0.4l0.5-0.2c0.6-0.3,1-0.1,1.4,0.5c0.5,0.8,1.2,2,1.7,3c0.8,1.4,1.4,2.3,1.8,3.3c0.4,0.9,0.5,1.1-0.2,1.7
		l-0.2,0.2c0,0.1,0.1,0.4,0.3,0.4c0.5-0.4,1.1-0.7,1.5-1c0.5-0.3,1-0.6,1.5-0.9c0.1-0.1-0.1-0.4-0.2-0.4l-0.5,0.2
		c-0.7,0.3-0.8,0.1-1.4-0.8c-0.7-1.1-1.5-2.3-2-3.2c-0.3-0.6-1-1.6-1.4-2.3l0,0c0.4,0.3,1.4,0.9,2,1.3l3,1.8c0.8,0.5,2.2,1.4,2.9,2
		c0.1,0,0.3-0.2,0.4-0.2c-0.2-0.8-0.4-2.8-0.6-4l-0.3-3.2c-0.1-0.7-0.1-1.2-0.2-2.2l0,0c0.2,0.2,0.5,0.7,0.8,1.2l2.8,4.3
		c0.6,0.9,0.6,1.1,0.1,1.5l-0.3,0.3c-0.1,0.2,0.1,0.4,0.3,0.4c0.6-0.4,1.2-0.8,1.9-1.3c0.6-0.4,1.1-0.7,1.8-1.1
		c0.1-0.2-0.1-0.4-0.2-0.4l-0.5,0.2c-0.5,0.2-0.7,0.2-1.3-0.6c-1.4-1.9-2.7-3.9-4-5.9c-0.5-0.7-0.5-1,0.1-1.5l0.4-0.4
		C337.2,340.4,337,340.1,336.8,340.2L336.8,340.2z M171,346c-0.2,0-0.3,0.2-0.3,0.4l0.2,0.2c0.6,0.5,0.7,0.7-0.2,2.1l-3.2,5.1
		c-0.9,1.5-1.1,1.4-1.8,1.1l-0.6-0.3c-0.2,0-0.3,0.3-0.2,0.4c0.7,0.4,1.6,0.9,2.2,1.3l1.7,1.1c1.7,1.1,3,1.9,3.6,2.3
		c0.4-0.2,1.4-1.1,1.9-1.6c0-0.2-0.2-0.4-0.4-0.4c-1.2,0.8-1.8,1-3.6-0.2c-1.2-0.8-1.4-1.1-1.5-1.3c-0.1-0.4,0.2-0.9,0.6-1.6
		l1.1-1.7c0.2-0.3,0.2-0.4,0.6-0.2l0.7,0.4c1.3,0.8,1.5,1,1.2,1.6l-0.2,0.6c0.1,0.2,0.3,0.3,0.5,0.3c0.3-0.4,0.5-0.9,0.9-1.5
		c0.3-0.5,0.7-1,0.9-1.3c0-0.2-0.3-0.3-0.5-0.3l-0.4,0.4c-0.5,0.5-0.7,0.4-2-0.4l-0.7-0.4c-0.3-0.2-0.3-0.2-0.1-0.6l1.5-2.3
		c0.5-0.8,0.5-0.8,1.1-0.4l1,0.6c0.4,0.2,0.8,0.6,1.1,0.9c0.4,0.4,0.4,0.9,0.1,1.8c0.1,0.2,0.4,0.3,0.5,0.2c0.3-0.6,0.9-1.8,1-2
		c-0.2-0.1-1.1-0.6-2-1.2l-2.8-1.8C172.2,346.8,171.5,346.4,171,346L171,346z M323.6,348.5c-0.6,0.4-1.3,0.8-1.9,1.1
		c-0.7,0.4-1.3,0.7-2,1.1c-0.1,0.1,0,0.4,0.2,0.4l0.3-0.1c0.7-0.3,0.9-0.3,1.7,1.1l2.9,5.2c0.8,1.5,0.7,1.6,0.1,2.1l-0.3,0.2
		c-0.1,0.2,0.1,0.4,0.2,0.4c0.6-0.4,1.3-0.8,2-1.2c0.7-0.4,1.3-0.7,2-1.1c0.1-0.1,0-0.4-0.2-0.4l-0.4,0.1c-0.7,0.3-0.9,0.3-1.7-1.1
		l-2.9-5.2c-0.8-1.5-0.7-1.6-0.1-2.1l0.3-0.2C324,348.7,323.8,348.5,323.6,348.5z M316.9,352.8c-0.9,0-2,0.3-3.2,1
		c-1.7,0.8-2.7,1.4-3.4,1.8c-0.1,0.1,0,0.4,0.2,0.4l0.4-0.2c0.7-0.3,0.8-0.1,1.5,1.3l2.6,5.3c0.7,1.5,0.6,1.6,0,2.1l-0.3,0.2
		c-0.1,0.2,0.1,0.4,0.2,0.4c0.7-0.4,1.4-0.7,2-1.1c0.6-0.3,1.2-0.6,1.9-0.9c1.7-0.9,2.6-1.6,3-2.5c0.4-0.9,0.3-1.7,0-2.4
		c-0.8-1.6-2.4-1.7-3.7-1.3c-0.1,0-0.2,0-0.2,0l0.1-0.1c0.9-0.9,1.2-1.8,0.8-2.7C318.4,353.3,317.8,352.9,316.9,352.8z M184.1,353.4
		c-0.3,0.5-1,1.3-1.6,1.9c0,0.2,0.3,0.4,0.5,0.3c1.1-0.9,1.6-0.9,3.1-0.2l0.9,0.4c0.4,0.2,0.4,0.2,0.1,0.8l-2.9,6.3
		c-0.7,1.5-0.9,1.5-1.6,1.2l-0.7-0.2c-0.1,0-0.3,0.3-0.2,0.4c1,0.4,1.8,0.8,2.4,1.1c0.7,0.3,1.4,0.7,2.3,1.1c0.2,0,0.3-0.3,0.2-0.4
		l-0.5-0.3c-0.7-0.4-0.8-0.5-0.1-2.1l2.9-6.3c0.3-0.6,0.3-0.6,0.7-0.4l0.9,0.4c1.7,0.8,1.8,1.2,1.5,2.4c0.1,0.2,0.4,0.3,0.5,0.2
		c0.1-0.4,0.5-1.1,0.9-1.6v0.1l0.4,0.2c0.6,0.3,0.7,0.6,0.8,1.8l0.6,7.4c0.1,0.7,0.1,1.6,0,2.3c0.1,0.1,0.2,0.2,0.3,0.2
		c0.1,0,0.3,0.1,0.3,0c0.6-0.7,1.9-2.2,3.1-3.3l1.6-1.6c1.3-1.3,2.1-2.1,2.8-2.7c0.4-0.3,0.8-0.3,1.2-0.3l0.4,0.1
		c0.1-0.1,0.2-0.3,0.1-0.4c-0.5-0.1-1-0.3-1.6-0.5c-0.5-0.2-1.1-0.4-1.7-0.7c-0.2,0-0.3,0.3-0.2,0.4l0.4,0.3c0.4,0.3,0.5,0.4,0,0.9
		c-1.6,1.8-3.3,3.5-4.9,5.1c0-0.4-0.2-1.5-0.2-2.3l-0.2-3.1c-0.1-1.8-0.1-2.2-0.1-2.3c0-0.1,0.2-0.2,0.6-0.1l0.4,0.1
		c0.2-0.1,0.3-0.3,0.1-0.5c-0.9-0.3-1.4-0.4-2.2-0.7c-0.6-0.2-1.3-0.5-1.9-0.7l0,0c0.1-0.1,0.2-0.2,0.2-0.3c0-0.1-0.1-0.1-0.2-0.2
		l-0.2,0c-0.3,0.2-0.6,0.2-1.4-0.2l-6.4-3c-1.1-0.5-1.3-0.6-1.2-1l-0.1-0.1C184.2,353.4,184.2,353.4,184.1,353.4L184.1,353.4z
		 M314.9,354c0.8-0.1,1.6,0.1,2,1.1c0.7,1.3,0.3,2.2-1.2,2.9c-0.6,0.3-0.7,0.3-0.8-0.1l-1.3-2.6c-0.3-0.6-0.2-0.6,0.5-1
		C314.4,354.2,314.7,354.1,314.9,354L314.9,354z M308.3,356.4c-0.2,0.1-1.1,0.5-2.1,0.9l-3,1.3c-0.7,0.3-1.4,0.6-2,0.8
		c-0.1,0.1,0,0.4,0.1,0.4l0.3-0.1c0.8-0.2,0.9-0.2,1.6,1.4l2.3,5.5c0.7,1.6,0.6,1.7-0.2,2.1l-0.6,0.3c-0.1,0.1,0.1,0.4,0.2,0.4
		c0.7-0.3,1.6-0.7,2.3-1l1.8-0.7c1.8-0.8,3.2-1.3,3.9-1.6c0.1-0.5-0.1-1.8-0.2-2.4c-0.2-0.1-0.4,0-0.5,0.1c0,1.4-0.2,2-2.2,2.8
		c-1.3,0.6-1.6,0.5-1.9,0.4c-0.3-0.2-0.6-0.7-0.9-1.4l-0.8-1.9c-0.2-0.4-0.2-0.4,0.2-0.6l0.7-0.3c1.4-0.6,1.6-0.7,2-0.1l0.4,0.6
		c0.2,0,0.5-0.1,0.5-0.2c-0.2-0.5-0.5-1-0.7-1.5c-0.2-0.6-0.4-1.1-0.6-1.5c-0.1-0.1-0.4,0-0.5,0.2l0.1,0.5c0.2,0.7-0.1,0.8-1.4,1.4
		l-0.7,0.3c-0.4,0.2-0.4,0.2-0.6-0.2l-1.1-2.5c-0.4-0.9-0.4-0.9,0.3-1.2l1.1-0.4c0.4-0.2,0.9-0.3,1.3-0.4c0.5-0.1,0.9,0.2,1.5,0.9
		c0.2,0,0.5-0.1,0.5-0.3C309.1,357.8,308.5,356.6,308.3,356.4L308.3,356.4z M317.9,358c0.9,0,1.7,0.5,2.1,1.5c0.6,1.3,0,2.4-1,2.9
		c-1.3,0.7-1.7,0.2-2.4-1.1l-1-2.1c-0.1-0.3-0.2-0.4,0.5-0.7C316.8,358.2,317.4,358,317.9,358z M296.6,361.7c-1.3,0-2.4,0.3-3.9,0.8
		c-1.6,0.5-2.8,1-3.9,1.5c-0.1,0.1,0,0.4,0.1,0.4l0.3-0.1c0.8-0.2,0.9,0,1.4,1.5l1.9,5.6c0.6,1.6,0.4,1.7-0.3,2l-0.3,0.2
		c-0.1,0.2,0,0.4,0.2,0.4c0.7-0.3,1.4-0.5,2-0.7c0.6-0.2,1.4-0.4,2.4-0.7c1.5-0.5,2.8-1.1,3.7-2.1c1.6-1.6,1.9-3.7,1.3-5.4
		C300.7,362.8,298.8,361.7,296.6,361.7L296.6,361.7z M295.2,362.6c1.8,0,3.3,1,4.1,3.3c0.9,2.6,0.3,4.9-2.6,5.9
		c-1.7,0.6-2.1-0.2-2.6-1.6l-1.9-5.4c-0.2-0.7-0.3-1-0.3-1.2c0.1-0.1,0.6-0.4,1.2-0.7C293.9,362.7,294.6,362.6,295.2,362.6z
		 M209.2,363.2c-2.9-0.2-5.4,1.5-6.1,4.3c-0.7,2.8,0.9,5.8,4.6,6.8c3.4,0.8,6.5-0.8,7.2-3.9c0.7-2.8-0.6-5.9-4.5-6.9
		C210.1,363.2,209.6,363.2,209.2,363.2L209.2,363.2z M209.5,363.8c0.2,0,0.4,0.1,0.6,0.1c2.7,0.7,3.1,3.7,2.5,6
		c-0.8,3.2-2.6,4.1-4.6,3.6c-2.9-0.7-3.1-3.9-2.6-6C206.3,364.6,208,363.7,209.5,363.8L209.5,363.8z M287.1,364.3
		c-0.7,0.2-1.4,0.4-2.1,0.7c-0.7,0.2-1.5,0.4-2.2,0.6l0,0.2c-0.5,0.1-1,0.2-1.6,0.4c-0.5,0.1-1.1,0.2-1.8,0.3
		c-0.1,0.1-0.1,0.4,0.1,0.5h0.5c0.5,0,0.6,0.1,0.5,0.8c-0.4,2.3-0.9,4.7-1.4,6.9c-0.2-0.3-0.9-1.1-1.3-1.8l-1.8-2.5
		c-1-1.5-1.2-1.8-1.3-1.9c0-0.1,0.1-0.2,0.4-0.4l0.4-0.2c0.1-0.1,0.1-0.4-0.1-0.4c-0.9,0.2-1.4,0.3-2.2,0.5c-0.6,0.1-1.4,0.3-2,0.4
		c-0.2,0.1-0.1,0.4,0.1,0.4h0.4c0.7,0,0.9,0.2,1.6,1.1l4.3,6c0.4,0.6,0.9,1.3,1.2,1.9c0.1,0,0.2,0,0.3,0c0.1,0,0.2-0.1,0.3-0.1
		c0.1-0.9,0.5-2.9,0.8-4.5l0.5-2.1c0.4-1.8,0.7-2.9,1-3.8c0.2-0.5,0.5-0.7,0.9-0.9l0.4-0.2v-0.1l0.4-0.1c0.8-0.1,0.9-0.1,1.4,1.5
		l1.6,5.8c0.5,1.6,0.3,1.7-0.4,2l-0.3,0.2c-0.1,0.1,0,0.4,0.2,0.4c0.7-0.2,1.5-0.5,2.2-0.7c0.7-0.2,1.5-0.4,2.2-0.6
		c0.1-0.1,0.1-0.4-0.1-0.5l-0.4,0c-0.8,0.1-1,0.1-1.4-1.5l-1.6-5.8c-0.5-1.6-0.3-1.7,0.4-2l0.3-0.1
		C287.3,364.5,287.2,364.3,287.1,364.3L287.1,364.3z"/>
</g>
</svg>
